<svg width="32" height="32" viewBox="0 0 32 32" fill="none" xmlns="http://www.w3.org/2000/svg">
<path d="M29.6792 14.7579L29.6782 14.7569L23.9631 9.30529C23.535 8.89689 22.8425 8.89841 22.4163 9.30885C21.9902 9.71924 21.9918 10.383 22.42 10.7915L26.2571 14.4516H3.09375C2.48967 14.4516 2 14.921 2 15.5C2 16.079 2.48967 16.5484 3.09375 16.5484H26.257L22.42 20.2085C21.9919 20.617 21.9902 21.2808 22.4164 21.6911C22.8425 22.1016 23.5351 22.1031 23.9632 21.6947L29.6783 16.2431L29.6792 16.2421C30.1076 15.8323 30.1062 15.1664 29.6792 14.7579Z" fill="black"/>
</svg>
