<svg width="40" height="40" viewBox="0 0 40 40" fill="none" xmlns="http://www.w3.org/2000/svg">
<g id="PL_Icon Black">
<path id="Vector" d="M20.0053 4.70459C11.5803 4.70459 4.72723 11.5576 4.72723 19.982C4.72723 28.4063 11.5803 35.26 20.0053 35.26C28.4303 35.26 35.2827 28.4063 35.2827 19.982C35.2827 11.5576 28.4296 4.70459 20.0053 4.70459ZM28.4811 9.80716L20.0053 18.2837L11.5288 9.80716C13.9066 7.82068 16.9066 6.73245 20.005 6.73245C23.1034 6.73245 26.1033 7.82068 28.4811 9.80716ZM6.7557 19.982C6.75377 16.7546 7.9348 13.6385 10.0753 11.2232L18.5709 19.7181L9.83051 28.4578C7.84154 26.0815 6.75293 23.0808 6.7557 19.982ZM11.2459 29.9112L20.0053 21.1525L28.7641 29.9112C26.3478 32.0505 23.2322 33.2315 20.005 33.2315C16.7778 33.2315 13.6621 32.0505 11.2459 29.9112ZM30.1794 28.4578L21.439 19.7181L29.9346 11.2232C32.0306 13.5915 33.2079 16.6328 33.2528 19.7951C33.2977 22.9574 32.2073 26.0309 30.1794 28.4578Z" fill="#010A1C"/>
<path id="Vector_2" d="M20.9777 13.4336C22.2348 12.9129 22.8318 11.4717 22.3111 10.2145C21.7904 8.95738 20.3491 8.3604 19.092 8.88112C17.8348 9.40184 17.2379 10.8431 17.7586 12.1002C18.2793 13.3574 19.7206 13.9543 20.9777 13.4336Z" fill="#010A1C"/>
</g>
</svg>
