<svg width="32" height="32" viewBox="0 0 32 32" fill="none" xmlns="http://www.w3.org/2000/svg">
<g id="arrow left_grey" clip-path="url(#clip0_132_122)">
<g id="Group">
<g id="Group_2">
<path id="Vector" d="M0.366625 15.1152C0.367001 15.1148 0.367313 15.1144 0.36775 15.114L6.89925 8.614C7.38856 8.12706 8.18 8.12887 8.66706 8.61825C9.15406 9.10756 9.15219 9.899 8.66287 10.386L4.27762 14.75H30.75C31.4404 14.75 32 15.3096 32 16C32 16.6904 31.4404 17.25 30.75 17.25H4.27769L8.66281 21.614C9.15213 22.101 9.154 22.8924 8.667 23.3817C8.17994 23.8712 7.38844 23.8729 6.89919 23.386L0.367687 16.886C0.367311 16.8856 0.366999 16.8852 0.366562 16.8848C-0.123001 16.3962 -0.121437 15.6022 0.366625 15.1152Z" fill="#9D9D9C"/>
</g>
</g>
</g>
<defs>
<clipPath id="clip0_132_122">
<rect width="32" height="32" fill="white" transform="matrix(-1 0 0 1 32 0)"/>
</clipPath>
</defs>
</svg>
