<svg width="211" height="31" viewBox="0 0 211 31" fill="none" xmlns="http://www.w3.org/2000/svg">
<g id="logo">
<path id="Vector" d="M22.8407 11.7927C22.8439 12.7991 22.6416 13.796 22.2459 14.7248C21.8502 15.6537 21.2689 16.4956 20.5363 17.2013C19.8037 17.907 18.9345 18.4622 17.9797 18.8342C17.0249 19.2063 16.0039 19.3876 14.9765 19.3677H10.9272V26.7823H6.3866V4.21767H14.9765C16.0039 4.19775 17.0249 4.37913 17.9797 4.75115C18.9345 5.12318 19.8037 5.67835 20.5363 6.38404C21.2689 7.08973 21.8502 7.93172 22.2459 8.86053C22.6416 9.78935 22.8439 10.7863 22.8407 11.7927ZM18.3336 11.7927C18.3336 9.82785 16.9193 8.377 14.984 8.377H10.9272V15.2084H14.9765C16.9193 15.2084 18.3336 13.7284 18.3336 11.7927Z" fill="#FCFAF9"/>
<path id="Vector_2" d="M34.4937 10.3418V14.986C32.2904 14.7271 29.4916 15.6932 29.4916 19.076V26.7823H25.245V10.6662H29.4916V13.4367C30.3476 11.2458 32.4206 10.3418 34.4937 10.3418Z" fill="#FCFAF9"/>
<path id="Vector_3" d="M44.5648 23.4614C45.264 23.4878 45.9601 23.3562 46.599 23.0767C47.238 22.7973 47.8027 22.3776 48.2494 21.8501L51.6735 23.7858C50.1252 25.973 47.6576 27.2343 44.4978 27.2343C38.971 27.2343 35.4799 23.527 35.4799 18.7224C35.4799 13.9179 39.0007 10.2069 44.1703 10.2069C49.0384 10.2069 52.496 13.9762 52.496 18.7151C52.4926 19.2886 52.4378 19.8607 52.3322 20.4248H39.9237C40.5155 22.5573 42.328 23.4614 44.5648 23.4614ZM48.2494 17.2096C47.7246 14.8875 45.9456 13.9543 44.1554 13.9543C41.8851 13.9543 40.3369 15.1463 39.8419 17.2096H48.2494Z" fill="#FCFAF9"/>
<path id="Vector_4" d="M67.2082 22.0762C67.2082 25.5575 64.1117 27.2343 60.5909 27.2343C57.3008 27.2343 54.8668 25.8783 53.6795 23.3958L57.3678 21.3653C57.8293 22.6886 58.9459 23.4614 60.5909 23.4614C61.9419 23.4614 62.8612 23.0094 62.8612 22.0762C62.8612 19.7213 54.3718 21.0117 54.3718 15.3396C54.3718 12.0588 57.2338 10.2142 60.6244 10.2142C63.2892 10.2142 65.593 11.4063 66.877 13.6299L63.2706 15.5656C63.0492 15.0651 62.68 14.6411 62.2103 14.348C61.7407 14.055 61.1922 13.9065 60.6355 13.9215C59.5823 13.9215 58.7263 14.3736 58.7263 15.2412C58.7151 17.6289 67.2082 16.1452 67.2082 22.0762Z" fill="#FCFAF9"/>
<path id="Vector_5" d="M68.8533 18.7225C68.8533 13.9216 72.5379 10.207 77.54 10.207C79.0381 10.1821 80.5151 10.5558 81.8135 11.2883C83.1119 12.0208 84.1831 13.0846 84.9129 14.3663L81.2618 16.4587C80.9088 15.7884 80.369 15.2298 79.705 14.8478C79.0409 14.4658 78.2799 14.2761 77.5102 14.3007C74.9757 14.3007 73.0999 16.1234 73.0999 18.7152C73.0999 21.307 74.9608 23.0896 77.5102 23.0896C79.2185 23.0896 80.6365 22.284 81.2916 20.9607L84.9799 23.024C84.2364 24.3119 83.1533 25.3804 81.8438 26.1179C80.5344 26.8554 79.0466 27.2347 77.5363 27.2162C72.5379 27.2344 68.8533 23.5271 68.8533 18.7225Z" fill="#FCFAF9"/>
<path id="Vector_6" d="M96.5956 10.3418V14.986C94.3923 14.7271 91.5935 15.6932 91.5935 19.076V26.7823H87.3506V10.6662H91.5935V13.4367C92.4495 11.2458 94.5337 10.3418 96.5956 10.3418Z" fill="#FCFAF9"/>
<path id="Vector_7" d="M98.5719 6.19713C98.5719 5.69244 98.7247 5.19909 99.0109 4.77946C99.2972 4.35982 99.7041 4.03276 100.18 3.83963C100.656 3.64649 101.18 3.59596 101.685 3.69442C102.191 3.79288 102.655 4.03591 103.019 4.39277C103.384 4.74964 103.632 5.20432 103.732 5.69931C103.833 6.1943 103.781 6.70737 103.584 7.17364C103.387 7.6399 103.053 8.03843 102.625 8.31882C102.196 8.59921 101.692 8.74887 101.177 8.74887C100.488 8.74409 99.8278 8.47372 99.3403 7.99621C98.8528 7.51869 98.5767 6.87242 98.5719 6.19713ZM99.0669 10.6773H103.31V26.7824H99.0669V10.6773Z" fill="#FCFAF9"/>
<path id="Vector_8" d="M124.799 18.7225C124.799 23.527 121.182 27.2343 116.771 27.2343C114.367 27.2343 112.625 26.3631 111.438 24.8795V26.7823H107.188V4.21765H111.431V12.5655C112.618 11.0855 114.36 10.2142 116.764 10.2142C121.182 10.207 124.799 13.9216 124.799 18.7225ZM120.557 18.7225C120.557 16.0176 118.614 14.1767 115.982 14.1767C113.351 14.1767 111.438 15.9994 111.438 18.7225C111.438 21.4455 113.381 23.2682 115.982 23.2682C118.584 23.2682 120.557 21.431 120.557 18.7225Z" fill="#FCFAF9"/>
<path id="Vector_9" d="M136.024 23.4614C136.724 23.4878 137.42 23.3562 138.059 23.0767C138.697 22.7973 139.262 22.3776 139.709 21.8501L143.133 23.7858C141.585 25.973 139.117 27.2343 135.957 27.2343C130.43 27.2343 126.939 23.527 126.939 18.7224C126.939 13.9179 130.464 10.2069 135.63 10.2069C140.498 10.2069 143.955 13.9762 143.955 18.7151C143.952 19.2886 143.897 19.8607 143.792 20.4248H131.38C131.975 22.5573 133.788 23.4614 136.024 23.4614ZM139.709 17.2096C139.184 14.8875 137.405 13.9543 135.615 13.9543C133.345 13.9543 131.796 15.1463 131.301 17.2096H139.709Z" fill="#FCFAF9"/>
<path id="Vector_10" d="M160.443 22.5282V26.7823H147.115V4.21765H151.656V22.5282H160.443Z" fill="#FCFAF9"/>
<path id="Vector_11" d="M162.319 6.19713C162.319 5.69244 162.472 5.19909 162.758 4.77946C163.044 4.35982 163.451 4.03276 163.927 3.83963C164.403 3.64649 164.927 3.59596 165.432 3.69442C165.938 3.79288 166.402 4.03591 166.766 4.39277C167.131 4.74964 167.379 5.20432 167.479 5.69931C167.58 6.1943 167.528 6.70737 167.331 7.17364C167.134 7.6399 166.8 8.03843 166.372 8.31882C165.943 8.59921 165.439 8.74887 164.924 8.74887C164.235 8.74315 163.576 8.47248 163.088 7.99517C162.601 7.51785 162.325 6.87212 162.319 6.19713ZM162.814 10.6773H167.06V26.7824H162.814V10.6773Z" fill="#FCFAF9"/>
<path id="Vector_12" d="M176.305 10.5022V10.6662H179.796V14.6761H176.305V26.7823H172.063V14.6615H169.692V10.6516H172.063V10.4876C172.063 6.04028 174.564 3.43021 179.796 3.751V7.76088C177.589 7.60413 176.305 8.31133 176.305 10.5022Z" fill="#FCFAF9"/>
<path id="Vector_13" d="M189.339 23.4614C190.038 23.4878 190.734 23.3562 191.373 23.0767C192.012 22.7973 192.577 22.3776 193.024 21.8501L196.448 23.7858C194.899 25.973 192.432 27.2343 189.272 27.2343C183.745 27.2343 180.254 23.527 180.254 18.7224C180.254 13.9179 183.779 10.2069 188.945 10.2069C193.813 10.2069 197.255 13.9835 197.255 18.7224C197.252 19.2959 197.197 19.868 197.092 20.4321H184.698C185.29 22.5573 187.102 23.4614 189.339 23.4614ZM193.024 17.2096C192.499 14.8875 190.72 13.9543 188.93 13.9543C186.659 13.9543 185.111 15.1463 184.616 17.2096H193.024Z" fill="#FCFAF9"/>
<path id="Vector_14" d="M198.588 24.4603C198.588 23.918 198.752 23.3878 199.06 22.9369C199.367 22.486 199.805 22.1347 200.316 21.9273C200.828 21.7199 201.391 21.6659 201.934 21.7719C202.477 21.878 202.976 22.1395 203.367 22.5232C203.758 22.9069 204.024 23.3957 204.132 23.9277C204.24 24.4597 204.184 25.011 203.971 25.5119C203.759 26.0127 203.4 26.4406 202.939 26.7414C202.478 27.0421 201.937 27.2023 201.383 27.2016C201.016 27.2016 200.652 27.1307 200.312 26.9928C199.973 26.855 199.665 26.6531 199.405 26.3985C199.146 26.1439 198.94 25.8416 198.799 25.5091C198.659 25.1765 198.587 24.8201 198.588 24.4603Z" fill="#FCFAF9"/>
</g>
</svg>
