<svg width="30" height="31" viewBox="0 0 30 31" fill="none" xmlns="http://www.w3.org/2000/svg">
<path d="M25.562 25.7111H21.1166V18.9813C21.1166 17.3764 21.0871 15.3114 18.8045 15.3114C16.4894 15.3114 16.1346 17.0592 16.1346 18.8656V25.7111H11.6907V11.8715H15.9587V13.7622H16.0178C16.8886 12.3245 18.5059 11.4656 20.2282 11.5271C24.7341 11.5271 25.5635 14.3925 25.5635 18.1182L25.562 25.7111ZM6.67472 9.97934C5.24959 9.97934 4.09501 8.8632 4.09501 7.48553C4.09501 6.10786 5.24959 4.99172 6.67472 4.99172C8.09984 4.99172 9.25442 6.10786 9.25442 7.48553C9.25442 8.8632 8.09984 9.97934 6.67472 9.97934ZM8.89666 25.7111H4.44685V11.8715H8.89666V25.7111ZM27.7781 1.00162H2.21308C1.00527 0.988762 0.0147834 1.92483 0 3.09242V27.9076C0.0147834 29.0766 1.00527 30.0127 2.21308 29.9998H27.7781C28.9888 30.0141 29.9837 29.0781 30 27.9076V3.09099C29.9823 1.92055 28.9873 0.984475 27.7781 1.0002" fill="#FCFAF9"/>
</svg>
